<?xml version="1.0" encoding="iso-8859-1"?>
<!-- Generator: Adobe Illustrator 18.1.1, SVG Export Plug-In . SVG Version: 6.00 Build 0)  -->
<svg xmlns="http://www.w3.org/2000/svg" xmlns:xlink="http://www.w3.org/1999/xlink" version="1.1" id="Capa_1" x="0px" y="0px" viewBox="0 0 41.167 41.167" style="enable-background:new 0 0 41.167 41.167;" xml:space="preserve" width="512px" height="512px">
<g>
	<path d="M33.506,36.816c0.114,0.27,0.172,0.544,0.172,0.822c0,0.385-0.102,0.743-0.307,1.077   c-0.204,0.333-0.491,0.588-0.859,0.764l-1.73,0.81c-0.675,0.307-1.351,0.53-2.028,0.669c-0.677,0.139-1.361,0.209-2.053,0.209   c-1.113,0-2.212-0.185-3.298-0.555s-2.125-0.9-3.117-1.589s-1.923-1.523-2.792-2.5c-0.869-0.978-1.648-2.068-2.335-3.271   c-0.438-0.667-0.898-1.428-1.381-2.283c-0.409-0.728-0.876-1.6-1.402-2.617c-0.526-1.016-1.056-2.145-1.592-3.384   c-0.548-1.24-0.983-2.323-1.304-3.249c-0.321-0.927-0.57-1.697-0.745-2.31c-0.205-0.716-0.346-1.33-0.423-1.841   c-0.282-0.949-0.49-1.893-0.623-2.832c-0.133-0.939-0.199-1.869-0.199-2.789c0-1.203,0.121-2.36,0.362-3.473   c0.241-1.113,0.612-2.148,1.111-3.105c0.499-0.957,1.132-1.813,1.899-2.568c0.767-0.755,1.674-1.369,2.721-1.844l1.706-0.785   C15.558,0.057,15.828,0,16.098,0c0.38,0,0.734,0.105,1.062,0.316c0.327,0.211,0.573,0.502,0.736,0.874l3.283,7.455   c0.115,0.27,0.172,0.54,0.172,0.81c0,0.397-0.102,0.764-0.307,1.101c-0.205,0.337-0.493,0.59-0.865,0.758l-3.375,1.552   c-0.446,0.205-0.787,0.505-1.025,0.902c-0.237,0.397-0.356,0.824-0.356,1.282c0,0.348,0.065,0.675,0.196,0.982l5.541,12.653   c0.217,0.487,0.516,0.845,0.899,1.074c0.382,0.229,0.799,0.344,1.249,0.344c0.307,0,0.62-0.07,0.939-0.209l3.375-1.552   c0.266-0.114,0.534-0.172,0.804-0.172c0.372,0,0.724,0.105,1.055,0.316c0.331,0.211,0.581,0.5,0.749,0.868L33.506,36.816z" fill="#d91604"/>
</g>
<g>
</g>
<g>
</g>
<g>
</g>
<g>
</g>
<g>
</g>
<g>
</g>
<g>
</g>
<g>
</g>
<g>
</g>
<g>
</g>
<g>
</g>
<g>
</g>
<g>
</g>
<g>
</g>
<g>
</g>
</svg>
